<?xml version="1.0" encoding="UTF-8"?><svg xmlns="http://www.w3.org/2000/svg" viewBox="0 0 221.67 221.67"><defs><style>.d{fill:none;}.e,.f{fill:#fff;}.f{stroke:#fff;stroke-linejoin:round;stroke-width:5px;}</style></defs><g id="a"/><g id="b"><g id="c"><g><path class="e" d="M110.83,0C49.62,0,0,49.62,0,110.83s49.62,110.83,110.83,110.83,110.84-49.62,110.84-110.83S172.05,0,110.83,0ZM10.41,111.67c0-11.39,1.9-22.34,5.39-32.55H102.95l-62.15,104.57c-18.75-18.26-30.39-43.78-30.39-72.02Zm100.56,100.56c-23.32,0-44.8-7.94-61.86-21.28l.05-.09,3.22-5.57,58.54-101.41,61.64,107.28c-17.01,13.21-38.39,21.07-61.6,21.07Zm69.4-27.79s-.07-.11-.19-.33c-.06-.11-.14-.24-.23-.4-.05-.08-.09-.17-.15-.25-.11-.19-.23-.4-.36-.62-.11-.19-.23-.4-.36-.63l-.42-.73-62.31-107.38s-.36-.47-.4-.7c-.01-.11-.03-.21-.06-.32-1.03-1.72-1.66-2.74-1.81-2.92l-.03-.03h0c-.85-.67-1.92-1.07-3.08-1.07H19.86C35.9,34.82,70.67,11.11,110.97,11.11s78.42,26.06,93.3,62.98c4.69,11.61,7.26,24.29,7.26,37.58,0,28.63-11.96,54.46-31.16,72.76Z"/><path class="d" d="M102.95,79.11l-62.15,104.57c-18.75-18.26-30.39-43.78-30.39-72.02,0-11.39,1.9-22.34,5.39-32.55H102.95Z"/><path class="d" d="M110.93,83.88l61.64,107.28c-17.01,13.21-38.39,21.07-61.6,21.07s-44.8-7.94-61.86-21.28l.05-.09,3.22-5.57,58.54-101.41Z"/><path class="d" d="M211.53,111.67c0,28.63-11.96,54.46-31.16,72.76,0,0-.07-.11-.19-.33-.06-.11-.14-.24-.23-.4-.05-.08-.09-.17-.15-.25-.11-.19-.23-.4-.36-.62-.11-.19-.23-.4-.36-.63l-.42-.73-62.31-107.38s-.36-.47-.4-.7c-.01-.11-.03-.21-.06-.32-1.03-1.72-1.66-2.74-1.81-2.92l-.03-.03h0c-.85-.67-1.92-1.07-3.08-1.07H19.86C35.9,34.82,70.67,11.11,110.97,11.11s78.42,26.06,93.3,62.98c4.69,11.61,7.26,24.29,7.26,37.58Z"/><path class="d" d="M102.95,79.11l-62.15,104.57c-18.75-18.26-30.39-43.78-30.39-72.02,0-11.39,1.9-22.34,5.39-32.55H102.95Z"/><path class="e" d="M115.88,73.07c-1.03-1.72-1.66-2.74-1.81-2.92,.92,.7,1.57,1.74,1.81,2.92Z"/><path class="d" d="M172.56,191.15c-17.01,13.21-38.39,21.07-61.6,21.07s-44.8-7.94-61.86-21.28l.05-.09,3.22-5.57,58.54-101.41,61.64,107.28Z"/><path class="d" d="M211.53,111.67c0,28.63-11.96,54.46-31.16,72.76,0,0-.07-.11-.19-.33-.06-.11-.14-.24-.23-.4-.05-.08-.09-.17-.15-.25-.11-.19-.23-.4-.36-.62-.11-.19-.23-.4-.36-.63-.13-.23-.27-.47-.42-.73-9.23-16.06-53.2-92.41-62.77-108.4-1.03-1.72-1.66-2.74-1.81-2.92l-.03-.03h0c-.85-.67-1.92-1.07-3.08-1.07H19.86C35.9,34.82,70.67,11.11,110.97,11.11s78.42,26.06,93.3,62.98c4.69,11.61,7.26,24.29,7.26,37.58Z"/><path class="f" d="M180.55,67.06c-9.26,0-16.76,7.51-16.76,16.76,0-9.25-7.51-16.76-16.76-16.76,9.25,0,16.76-7.51,16.76-16.76,0,9.25,7.5,16.76,16.76,16.76Z"/></g></g></g></svg>